# xmcd
#
# Track frame offsets: 
#        150
#        23616
#        34068
#        51416
#        62460
#        79984
#        90347
#        101788
#        113731
#        124712
#        137109
#        150670
#        162592
#        175816
#        187320
#        203326
#        216704
#        230945
#        249164
#        260661
#        279676
#        293562
#        309245
#        318910
#        332754
#
# Disc length: 4614 seconds
#
# Revision: 9
# Processed by: cddbd v1.5.2PL0 Copyright (c) Steve Scherf et al.
# Submitted via: ExactAudioCopyFreeDBPlugin 1.0
#
DISCID=6c120419
DTITLE=John Fogerty - 2005 - The Long Road Home
DYEAR=2005
DGENRE=Rock
TTITLE0=Born On The Bayou
TTITLE1=Bad Moon Rising
TTITLE2=Centerfield
TTITLE3=Who'll Stop The Rain
TTITLE4=Rambunctious Boy
TTITLE5=Fortunate Son
TTITLE6=Lookin' Out My Back Door
TTITLE7=Up Around The Bend
TTITLE8=Almost Saturday Night (Live)
TTITLE9=Down On The Corner
TTITLE10=Bootleg (Live)
TTITLE11=Have You Ever Seen The Rain?
TTITLE12=Sweet Hitch-Hiker
TTITLE13=Hey Tonight (Live)
TTITLE14=The Old Man Down The Road
TTITLE15=Rockin' All Over The World (Live)
TTITLE16=Lodi
TTITLE17=Keep On Chooglin' (Live)
TTITLE18=Green River
TTITLE19=Déjà Vu (All Over Again)
TTITLE20=Run Through The Jungle
TTITLE21=Hot Rod Heart
TTITLE22=Travelin' Band
TTITLE23=Proud Mary
TTITLE24=Fortunate Son (Live)
EXTD=2005\nThe Ultimate John Fogerty - Creedence Collection
EXTT0=CCR
EXTT1=CCR
EXTT2=John Fogerty
EXTT3=CCR
EXTT4=John Fogerty
EXTT5=CCR
EXTT6=CCR
EXTT7=CCR
EXTT8=John Fogerty
EXTT9=CCR
EXTT10=John Fogerty
EXTT11=CCR
EXTT12=CCR
EXTT13=John Fogerty
EXTT14=John Fogerty
EXTT15=John Fogerty
EXTT16=CCR
EXTT17=John Fogerty
EXTT18=CCR
EXTT19=John Fogerty
EXTT20=CCR
EXTT21=John Fogerty
EXTT22=CCR
EXTT23=CCR
EXTT24=John Fogerty
PLAYORDER=
